<?xml version="1.0" encoding="UTF-8"?>
<svg id="Layer_1" xmlns="http://www.w3.org/2000/svg" xmlns:xlink="http://www.w3.org/1999/xlink" version="1.1" viewBox="0 0 230.75 244.4">
  <!-- Generator: Adobe Illustrator 30.1.0, SVG Export Plug-In . SVG Version: 2.1.1 Build 136)  -->
  <defs>
    <style>
      .st0 {
        fill: none;
      }

      .st1 {
        mask: url(#mask);
      }

      .st2 {
        fill: #334368;
      }

      .st3 {
        fill: #11274a;
      }

      .st4 {
        fill: url(#linear-gradient2);
      }

      .st5 {
        fill: url(#linear-gradient1);
      }

      .st6 {
        fill: url(#linear-gradient3);
      }

      .st7 {
        fill: url(#linear-gradient5);
      }

      .st8 {
        fill: url(#linear-gradient4);
      }

      .st9 {
        fill: #303c61;
      }

      .st10 {
        fill: #3f547a;
      }

      .st11 {
        fill: url(#linear-gradient);
      }

      .st12 {
        clip-path: url(#clippath-1);
      }

      .st13 {
        clip-path: url(#clippath-3);
      }

      .st14 {
        clip-path: url(#clippath-4);
      }

      .st15 {
        clip-path: url(#clippath-2);
      }

      .st16 {
        fill: #e18538;
      }

      .st17 {
        fill: #4d658e;
      }

      .st18 {
        clip-path: url(#clippath);
      }
    </style>
    <clipPath id="clippath">
      <polygon class="st0" points="67.42 32.21 67.42 195.34 119.97 229.38 172.52 202.07 172.52 32.21 119.97 5.41 67.42 32.21"/>
    </clipPath>
    <linearGradient id="linear-gradient" x1="-44.48" y1="263.81" x2="-43.48" y2="263.81" gradientTransform="translate(-4502.22 -27608.24) rotate(-180) scale(105.1 -105.1)" gradientUnits="userSpaceOnUse">
      <stop offset="0" stop-color="#f7dbaf"/>
      <stop offset="1" stop-color="#fff" stop-opacity="0"/>
    </linearGradient>
    <clipPath id="clippath-1">
      <polygon class="st0" points="124.29 143.01 142.81 143.01 142.81 131.8 124.29 125.01 124.29 143.01"/>
    </clipPath>
    <linearGradient id="linear-gradient1" x1="-44.48" y1="263.81" x2="-43.48" y2="263.81" gradientTransform="translate(4880.62 -657.38) rotate(-90) scale(17.99 -17.99)" gradientUnits="userSpaceOnUse">
      <stop offset="0" stop-color="#000"/>
      <stop offset="1" stop-color="#fff"/>
      <stop offset="1" stop-color="#fff"/>
    </linearGradient>
    <mask id="mask" x="124.29" y="125.01" width="18.52" height="18" maskUnits="userSpaceOnUse">
      <rect class="st5" x="124.29" y="125.01" width="18.52" height="18"/>
    </mask>
    <linearGradient id="linear-gradient2" x1="-44.48" y1="263.81" x2="-43.48" y2="263.81" gradientTransform="translate(4880.62 -657.38) rotate(-90) scale(17.99 -17.99)" gradientUnits="userSpaceOnUse">
      <stop offset="0" stop-color="#3c4b79"/>
      <stop offset="1" stop-color="#242148"/>
      <stop offset="1" stop-color="#242148"/>
    </linearGradient>
    <clipPath id="clippath-2">
      <polygon class="st0" points="149.9 202.07 172.52 190.4 172.52 91.53 149.9 80.11 149.9 202.07"/>
    </clipPath>
    <linearGradient id="linear-gradient3" x1="-44.48" y1="263.81" x2="-43.48" y2="263.81" gradientTransform="translate(-32011.69 5504.69) rotate(90) scale(121.96 -121.96)" gradientUnits="userSpaceOnUse">
      <stop offset="0" stop-color="#00092c"/>
      <stop offset="1" stop-color="#292f45"/>
    </linearGradient>
    <clipPath id="clippath-3">
      <polygon class="st0" points="172.52 115.17 199.73 127.6 199.73 173.33 119.97 213.94 119.97 236.62 220.33 182.1 220.33 115.67 172.52 91.53 172.52 115.17"/>
    </clipPath>
    <linearGradient id="linear-gradient4" x1="-44.48" y1="263.81" x2="-43.48" y2="263.81" gradientTransform="translate(-4243.64 -26311.5) rotate(-180) scale(100.36 -100.36)" gradientUnits="userSpaceOnUse">
      <stop offset="0" stop-color="#d06d35"/>
      <stop offset="1" stop-color="#984b38"/>
    </linearGradient>
    <clipPath id="clippath-4">
      <polygon class="st0" points="9.5 106.79 9.5 181.36 119.97 236.62 119.97 213.94 34.46 170.13 34.42 116.1 97.61 84.61 97.72 134.77 119.97 123.43 119.97 49.4 9.5 106.79"/>
    </clipPath>
    <linearGradient id="linear-gradient5" x1="-44.48" y1="263.69" x2="-43.48" y2="263.69" gradientTransform="translate(-44739.91 7636.02) rotate(90) scale(169.91 -169.91)" gradientUnits="userSpaceOnUse">
      <stop offset="0" stop-color="#3c4b79"/>
      <stop offset="1" stop-color="#011637"/>
    </linearGradient>
  </defs>
  <g class="st18">
    <rect class="st11" x="67.42" y="5.41" width="105.1" height="223.97"/>
  </g>
  <polygon class="st2" points="124.3 119.33 124.3 215.64 142.81 206.67 142.81 126.42 124.3 119.33"/>
  <g class="st12">
    <g class="st1">
      <rect class="st4" x="124.29" y="125.01" width="18.52" height="18"/>
    </g>
  </g>
  <g>
    <polygon class="st10" points="32.44 181.32 32.48 135.86 67.42 153.77 67.42 198.06 32.44 181.32"/>
    <polygon class="st16" points="207.5 185.33 207.45 139.88 172.52 157.78 172.52 202.07 207.5 185.33"/>
    <polygon class="st3" points="119.97 65.04 67.42 91.84 67.42 150.23 119.97 123.43 119.97 65.04"/>
    <polygon class="st3" points="119.97 132.25 67.42 159.44 67.42 198.06 119.97 223.85 119.97 132.25"/>
    <polygon class="st3" points="119.97 5.41 67.42 32.21 67.42 71.07 119.97 43.47 119.97 5.41"/>
    <polygon class="st17" points="119.97 5.41 172.51 32.21 172.51 84.52 149.9 73.11 149.9 59.2 119.97 43.47 119.97 5.41"/>
  </g>
  <g class="st15">
    <rect class="st6" x="149.9" y="80.11" width="22.61" height="121.96"/>
  </g>
  <polygon class="st17" points="142.81 131.8 142.81 61.47 119.97 49.47 119.97 123.43 142.81 131.8"/>
  <g class="st13">
    <rect class="st8" x="119.97" y="91.53" width="100.36" height="145.09"/>
  </g>
  <g class="st14">
    <rect class="st7" x="-40.51" y="37.76" width="210.5" height="210.5" transform="translate(-82.16 87.66) rotate(-45)"/>
  </g>
  <polygon class="st9" points="119.97 213.94 119.97 132.25 97.74 143.75 97.87 202.62 119.97 213.94"/>
</svg>